HIERARCHY
ROOT Hips
{
	OFFSET 0.00000 0.00000 0.00000
	CHANNELS 6 Xposition Yposition Zposition Zrotation Yrotation Xrotation 
	JOINT LHipJoint
	{
		OFFSET 0 0 0
		CHANNELS 3 Zrotation Yrotation Xrotation
		JOINT LeftHip
		{
			OFFSET 1.59715 -1.91394 0.36268
			CHANNELS 3 Zrotation Yrotation Xrotation
			JOINT LeftKnee
			{
				OFFSET 2.53886 -6.97546 0.00000
				CHANNELS 3 Zrotation Yrotation Xrotation
				JOINT LeftAnkle
				{
					OFFSET 2.77084 -7.61284 0.00000
					CHANNELS 3 Zrotation Yrotation Xrotation
					JOINT LeftToe
					{
						OFFSET 0.19855 -0.54550 2.06057
						CHANNELS 3 Zrotation Yrotation Xrotation
						End Site
						{
							OFFSET 0.00000 -0.00000 1.07182
						}
					}
				}
			}
		}
	}
	JOINT RHipJoint
	{
		OFFSET 0 0 0
		CHANNELS 3 Zrotation Yrotation Xrotation
		JOINT RightHip
		{
			OFFSET -1.71086 -1.91394 0.36268
			CHANNELS 3 Zrotation Yrotation Xrotation
			JOINT RightKnee
			{
				OFFSET -2.59448 -7.12828 0.00000
				CHANNELS 3 Zrotation Yrotation Xrotation
				JOINT RightAnkle
				{
					OFFSET -2.80237 -7.69945 0.00000
					CHANNELS 3 Zrotation Yrotation Xrotation
					JOINT RightToe
					{
						OFFSET -0.18280 -0.50224 2.06614
						CHANNELS 3 Zrotation Yrotation Xrotation
						End Site
						{
							OFFSET -0.00000 -0.00000 1.07055
						}
					}
				}
			}
		}
	}
	JOINT lowerback
	{
		OFFSET 0 0 0
		CHANNELS 3 Zrotation Yrotation Xrotation
		JOINT Chest
		{
			OFFSET 0.04838 1.91536 -0.09733
			CHANNELS 3 Zrotation Yrotation Xrotation
			JOINT Chest2
			{
				OFFSET 0.04097 1.92183 -0.02751
				CHANNELS 3 Zrotation Yrotation Xrotation
				JOINT lowerneck
				{
					OFFSET 0 0 0
					CHANNELS 3 Zrotation Yrotation Xrotation
					JOINT Neck
					{
						OFFSET 0.18766 3.12816 0.13727
						CHANNELS 3 Zrotation Yrotation Xrotation
						JOINT Head
						{
							OFFSET -0.11178 3.16074 0.02732
							CHANNELS 3 Zrotation Yrotation Xrotation
							End Site
							{
								OFFSET 0.47685 1.04189 0.57898
							}
						}
					}
				}
				JOINT LeftCollar
				{
					OFFSET 0 0 0
					CHANNELS 3 Zrotation Yrotation Xrotation
					JOINT LeftShoulder
					{
						OFFSET 3.49325 0.99827 -0.10681
CHANNELS 3 Zrotation Xrotation Yrotation
						JOINT LeftElbow
						{
OFFSET 0 -5.128420 0.000000
CHANNELS 3 Zrotation Xrotation Yrotation
							JOINT LeftWrist
							{
OFFSET 0 -3.473960 0.000000
CHANNELS 3 Zrotation Xrotation Yrotation
								JOINT lhand
								{
									OFFSET 0 0 0
CHANNELS 3 Zrotation Xrotation Yrotation
									JOINT LFingers
									{
OFFSET 0 -0.728610 0.000000
CHANNELS 3 Zrotation Xrotation Yrotation
										End Site
										{
OFFSET 0 -0.587420 0.000000
										}
									}
								}
								JOINT LThumb
								{
OFFSET 0 0.000000 0.000000
CHANNELS 3 Zrotation Xrotation Yrotation
									End Site
									{
OFFSET 0 -0.596390 0.596390
									}
								}
							}
						}
					}
				}
				JOINT RightCollar
				{
					OFFSET 0 0 0
					CHANNELS 3 Zrotation Yrotation Xrotation
					JOINT RightShoulder
					{
						OFFSET -3.23261 1.50670 -0.18692
CHANNELS 3 Zrotation Xrotation Yrotation
						JOINT RightElbow
						{
OFFSET 0 -5.484770 -0.000000
CHANNELS 3 Zrotation Xrotation Yrotation
							JOINT RightWrist
							{
OFFSET 0 -3.478560 0.000000
CHANNELS 3 Zrotation Xrotation Yrotation
								JOINT rhand
								{
									OFFSET 0 0 0
CHANNELS 3 Zrotation Xrotation Yrotation
									JOINT RFingers
									{
OFFSET 0 -0.709970 0.000000
CHANNELS 3 Zrotation Xrotation Yrotation
										End Site
										{
OFFSET 0 -0.572400 0.000000
										}
									}
								}
								JOINT RThumb
								{
OFFSET 0 0.000000 0.000000
CHANNELS 3 Zrotation Xrotation Yrotation
									End Site
									{
OFFSET 0 -0.581140 0.581140
									}
								}
							}
						}
					}
				}
			}
		}
	}
}
MOTION
Frames: 9
Frame Time: 0.008333333333333333
4.621950 18.062292 -11.407075 -4.308783 -68.314682 -353.143519 0.000000 0.000000 0.000000 -22.535335 -12.139401 -12.042234 2.442167 9.731889 28.112852 0.705822 -6.196953 -14.984269 0.031314 0.950943 2.616351 0.000000 0.000000 0.000000 20.444176 7.489595 -34.849598 -12.008000 -18.393309 66.013507 0.270935 -10.697197 -9.778652 -2.731362 -10.246138 29.778196 0.622319 -0.469292 6.897707 3.506344 -0.477688 0.007134 3.336143 -0.234096 -3.839748 -2.696499 -0.457727 -14.762770 -3.468422 0.653721 27.708878 -0.757482 -0.593592 11.482555 0.000000 0.000000 0.000000 -3.310266 2.578163 -13.574725 15.885337 -25.364843 3.596796 12.653444 17.377857 -31.236863 0.000000 0.000000 0.000000 -7.125000 0.000000 0.000000 -22.119659 60.466826 8.587976 0.000000 0.000000 0.000000 -2.755752 0.119751 14.373767 -16.329017 -25.964682 -3.788839 -26.275269 -12.393484 -14.420026 0.000000 0.000000 0.000000 7.125000 0.000000 0.000000 0.828753 13.980368 0.604035
3.401602 18.058544 -10.952041 -4.313482 -67.032205 -353.191269 0.000000 0.000000 0.000000 -23.338231 -10.176359 -6.812223 2.209363 9.288894 26.703410 0.973954 -6.281571 -17.607067 0.013528 0.022782 0.063501 0.000000 0.000000 0.000000 20.452022 10.366276 -32.321707 -4.035905 -12.201945 36.458893 0.239136 -10.766626 -10.806614 -2.201344 -9.271872 26.650648 0.258097 -0.529755 7.253137 3.585007 -0.583483 0.190615 3.638936 -0.281081 -3.838969 -2.862029 -0.646930 -14.526423 -3.420725 0.408745 26.950458 -0.731080 -0.685297 11.143997 0.000000 0.000000 0.000000 -2.181878 0.997099 -18.385466 20.904329 -31.716264 5.999766 14.065930 13.008510 -30.993874 0.000000 0.000000 0.000000 -7.125000 0.000000 0.000000 -20.428282 60.578178 7.951682 0.000000 0.000000 0.000000 -2.823262 -0.277289 12.433716 -15.332602 -24.607397 -3.363211 -26.854417 -11.411201 -14.371693 0.000000 0.000000 0.000000 7.125000 0.000000 0.000000 0.432751 13.955820 0.315543
2.131732 18.087761 -10.534488 -3.395882 -65.959960 -354.121644 0.000000 0.000000 0.000000 -24.033971 -7.412959 -1.365794 1.877510 8.606022 24.570581 0.899973 -7.072775 -16.944969 0.204481 2.911356 8.032085 0.000000 0.000000 0.000000 19.220390 15.118588 -25.720538 -1.146080 -6.797936 19.118139 0.138566 -8.743876 -9.321483 -1.119804 -6.717133 18.881919 -0.026518 -0.449886 7.242936 3.385293 -0.517005 0.543778 3.578455 -0.250318 -3.469765 -2.808467 -0.612540 -14.292879 -3.748949 0.527603 26.359408 -0.831449 -0.642501 10.878347 0.000000 0.000000 0.000000 -1.209690 -0.036872 -21.741313 24.091756 -35.261094 7.759473 13.618027 10.941938 -30.832382 0.000000 0.000000 0.000000 -7.125000 0.000000 0.000000 -20.774940 60.321929 7.966134 0.000000 0.000000 0.000000 -2.601061 -0.566581 11.219235 -14.532551 -23.490880 -3.037159 -26.533013 -10.202565 -14.686284 0.000000 0.000000 0.000000 7.125000 0.000000 0.000000 0.676638 13.653034 0.498159
0.734983 18.144223 -10.114505 -4.844391 -64.156119 -352.687639 0.000000 0.000000 0.000000 -22.637408 -8.104951 0.510645 2.756931 10.289189 29.919934 0.550070 -9.054596 -13.745826 0.019788 -0.904597 -2.486440 0.000000 0.000000 0.000000 21.471018 15.651592 -23.093387 -1.583679 -7.938945 22.528704 0.294356 -9.589378 -4.236047 -2.615751 -10.044352 29.121316 0.865729 -0.658889 7.159610 3.767602 -0.725159 0.629797 3.491036 -0.370331 -3.327291 -2.123759 -0.237959 -14.558486 -4.925824 1.214029 25.273486 -1.262013 -0.366914 10.546972 0.000000 0.000000 0.000000 -2.417734 0.144651 -20.107583 22.814738 -33.885140 7.034898 13.666358 12.042532 -30.537911 0.000000 0.000000 0.000000 -7.125000 0.000000 0.000000 -20.492623 60.059610 7.723409 0.000000 0.000000 0.000000 -3.181988 -0.045607 11.375908 -14.158020 -22.960091 -2.889508 -26.873031 -11.164306 -14.519103 0.000000 0.000000 0.000000 7.125000 0.000000 0.000000 0.432770 13.790755 0.317188
-0.664718 18.239273 -9.636068 -7.265513 -62.401957 -350.205262 0.000000 0.000000 0.000000 -18.871676 -10.299007 -7.231635 6.426825 14.826608 46.666274 -0.612853 -14.024604 7.870918 0.052216 0.793340 2.186734 0.000000 0.000000 0.000000 24.522235 13.633013 -19.821387 -1.997460 -8.860803 25.360845 0.058529 -6.554339 -7.663796 -2.985523 -10.671362 31.179654 3.000071 -0.426585 6.641798 4.187761 -0.272165 0.568794 2.674992 -0.177742 -3.132767 -3.088170 -0.327892 -15.101342 -4.294074 1.208658 24.136304 -0.857116 -0.339670 10.231668 0.000000 0.000000 0.000000 -3.666065 1.619663 -18.847507 18.672070 -29.008882 4.870953 13.200449 15.151214 -30.902313 0.000000 0.000000 0.000000 -7.125000 0.000000 0.000000 -21.271556 60.288178 8.149244 0.000000 0.000000 0.000000 -3.361252 0.256999 10.335085 -13.533493 -22.063813 -2.650373 -26.567452 -9.821927 -14.450179 0.000000 0.000000 0.000000 7.125000 0.000000 0.000000 0.633254 13.908539 0.463528
-1.872645 18.261874 -9.165829 -10.860064 -59.953067 -347.730599 0.000000 0.000000 0.000000 -12.929697 -12.186273 -18.985954 11.224973 18.043232 63.509763 -0.576403 -13.352786 3.664625 0.002890 0.204158 0.561064 0.000000 0.000000 0.000000 28.333918 9.633748 -15.526289 -2.052819 -8.975228 25.717964 -0.241404 -3.832152 -11.500598 -3.212024 -11.030444 32.382786 5.211707 0.011129 7.522396 4.843933 0.532244 0.748821 2.048547 0.181332 -3.445210 -3.213565 -0.701955 -14.842233 -4.080639 0.626197 22.291316 -0.808568 -0.520213 9.516629 0.000000 0.000000 0.000000 -4.727695 2.566093 -17.729971 16.250656 -25.859307 3.754658 12.102389 18.987556 -29.800443 0.000000 0.000000 0.000000 -7.125000 0.000000 0.000000 -21.562830 59.017485 7.607338 0.000000 0.000000 0.000000 -4.870626 -0.362379 14.083922 -13.902961 -22.595816 -2.790686 -25.093419 -9.713633 -14.193566 0.000000 0.000000 0.000000 7.125000 0.000000 0.000000 1.612928 14.380258 1.162299
-2.973871 18.156690 -8.673782 -9.160153 -57.966735 -349.580437 0.000000 0.000000 0.000000 -10.082322 -15.745597 -25.819883 9.986874 17.401949 59.443760 0.251643 -5.765324 -9.201527 0.008158 -0.579701 -1.592993 0.000000 0.000000 0.000000 29.059456 9.194742 -12.717379 -2.631411 -10.073035 29.213514 -0.710150 -4.662452 -18.286263 -3.564908 -11.557642 34.184659 4.124009 0.445728 8.352370 4.410858 1.086113 0.719918 2.143234 0.471554 -3.950699 -3.241579 -1.344947 -14.726253 -3.075462 -0.508773 21.102733 -0.580340 -0.893158 9.070277 0.000000 0.000000 0.000000 -5.070163 3.845046 -14.968593 15.361667 -24.647497 3.375335 11.906935 17.640704 -30.807825 0.000000 0.000000 0.000000 -7.125000 0.000000 0.000000 -22.551388 59.898677 8.458122 0.000000 0.000000 0.000000 -4.976558 -1.491674 14.735216 -15.303172 -24.566560 -3.351005 -27.122531 -13.429943 -13.755894 0.000000 0.000000 0.000000 7.125000 0.000000 0.000000 0.198373 14.600689 0.142094
-4.015572 18.089310 -8.006360 -8.517575 -56.359158 -349.900831 0.000000 0.000000 0.000000 -7.278667 -18.851808 -25.209740 3.948935 12.090492 36.055195 0.380196 0.100010 -11.685449 0.001216 -0.223989 -0.615530 0.000000 0.000000 0.000000 29.830527 8.385261 -8.334202 -2.606772 -10.029478 29.072377 -0.876164 -7.052943 -21.596485 -2.014642 -8.896253 25.471537 4.409647 0.476429 8.157013 4.004527 1.139222 0.614422 1.553541 0.493858 -3.937354 -4.014762 -1.833907 -14.051138 -2.097306 -1.263495 20.979670 -0.200670 -1.193819 8.915494 0.000000 0.000000 0.000000 -5.537019 3.956539 -10.743367 14.386504 -23.284588 2.979179 12.208173 20.738217 -30.295171 0.000000 0.000000 0.000000 -7.125000 0.000000 0.000000 -21.831686 59.497559 7.961380 0.000000 0.000000 0.000000 -5.707742 -2.066660 18.906661 -17.588254 -27.626678 -4.356644 -26.604404 -14.972298 -13.699592 0.000000 0.000000 0.000000 7.125000 0.000000 0.000000 0.546687 14.730282 0.389719
-5.015663 18.108706 -7.112116 -8.303295 -56.774271 -350.401918 0.000000 0.000000 0.000000 -6.522121 -21.262199 -18.488042 0.623161 5.050972 14.054178 0.073917 2.261375 -6.487316 0.021459 -0.928467 -2.552160 0.000000 0.000000 0.000000 29.486799 6.564016 -2.307236 -2.273569 -9.414145 27.099558 -0.968476 -6.404189 -21.964378 -1.407057 -7.502953 21.214339 4.703689 0.606514 7.671595 3.678549 1.274403 0.898056 1.038714 0.565958 -3.354850 -3.542386 -1.982238 -14.337763 -2.001363 -1.602385 24.378455 -0.329379 -1.386068 10.163035 0.000000 0.000000 0.000000 -5.917539 3.901800 -9.355135 14.036116 -22.786253 2.842049 12.167702 20.318432 -30.427881 0.000000 0.000000 0.000000 -7.125000 0.000000 0.000000 -21.977495 59.610445 8.077403 0.000000 0.000000 0.000000 -5.808388 -3.080970 19.508669 -18.811581 -29.183811 -4.938652 -26.884144 -15.583915 -14.149821 0.000000 0.000000 0.000000 7.125000 0.000000 0.000000 0.393719 14.196761 0.285053
